<svg viewBox="0 0 72 72" xmlns="http://www.w3.org/2000/svg"><path d="m65 36c0 1.61-.13 3.19-.39 4.73-.71 4.39-2.42 8.45-4.89 11.94v.01c-4.24 6.03-10.73 10.37-18.24 11.8-1.78.34-3.61.52-5.48.52-.5 0-1-.01-1.49-.04h-.07c-.47-.03-.94-.06-1.41-.11-.04 0-.08-.01-.1201-.01-.39-.04-.78-.09-1.17-.15-.11-.02-.23-.03-.34-.05-.3-.05-.59-.1-.89-.16-.47-.09-.94-.19-1.41-.31-.19-.04-.39-.09-.58-.14-.26-.07-.52-.15-.78-.23-.23-.07-.47-.14-.71-.22-.2401-.0699-.47-.15-.7-.24-.19-.07-.38-.14-.57-.21-.11-.03-.21-.07-.32-.12-.39-.16-.78-.32-1.16-.4901-.52-.23-1.03-.48-1.54-.74-.23-.12-.45-.24-.68-.37-.26-.14-.51-.28-.76-.43-.28-.17-.56-.33-.84-.51-.08-.05-.16-.11-.2401-.16-.39-.25-.78-.52-1.15-.79-.32-.22-.63-.46-.93-.69-.03-.02-.05-.04-.08-.0699-.27-.21-.53-.42-.78-.64-.13-.1-.26-.21-.38-.32-.1-.09-.19-.17-.29-.26-.02-.01-.03-.02-.04-.03-.03-.03-.06-.06-.09-.08-.02-.01-.03-.03-.04-.04-.02-.01-.03-.02-.04-.04-.13-.11-.25-.22-.37-.34-.13-.12-.25-.23-.36-.35-.02-.02-.04-.04-.05-.06-.1-.1-.2-.19-.3-.28-.1517-.1517-.2917-.3225-.4401-.4795-.0066-.0068-.0134-.0137-.02-.0205.0008.0004.0015.0009.0023.0013-.3342-.3544-.6707-.7049-.9923-1.0813-.24-.28-.48-.57-.71-.87-.3199-.41-.6299-.82-.93-1.25-2.46-3.51-4.16-7.59-4.87-12.01-.2397-1.5-.3597-3.04-.3597-4.61 0-6.17 1.92-11.89 5.22-16.59 3.19-4.58 7.68-8.19 12.93-10.3 3.35-1.37 7.01-2.11 10.85-2.11 3.83 0 7.49.74 10.83 2.1 2.52 1 4.86 2.36 6.97 4.02.56.43 1.11.89 1.64 1.38h.01c.53.48 1.04.98 1.53 1.5.75.77 1.44 1.58 2.09 2.44.21.28.43.57.63.86v.01s0-.01.01 0c.5.69.97 1.42 1.39 2.17.15.25.29.5.4301.76.17.31.33.61.47.92.11.21.21.42.31.64.16.32.3.64.43.96.16.36.3.72.43 1.09.11.28.21.56.3.85.08.23.16.47.2401.72.1.32.19.64.28.96.06.23.12.45.17.68.1801.71.33 1.42.44 2.15.04.21.07.42.1.64.05.32.09.65.12.97.02.14.04.28.05.41.03.35.06.7.07 1.06.02.15.03.29.03.44.0198.42.0298.84.0298 1.27z" fill="#fff"/><path d="m65 36c0 1.61-.13 3.19-.39 4.73-.71 4.39-2.42 8.45-4.89 11.94v.01c-4.24 6.03-10.73 10.37-18.24 11.8-1.78.34-3.61.52-5.48.52-.5 0-1-.01-1.49-.04h-.07c-.47-.03-.94-.06-1.41-.11-.04 0-.08-.01-.1201-.01-.39-.04-.78-.09-1.17-.15-.11-.02-.23-.03-.34-.05-.3-.05-.59-.1-.89-.16-.47-.09-.94-.19-1.41-.31-.19-.04-.39-.09-.58-.14-.26-.07-.52-.15-.78-.23-.23-.07-.47-.14-.71-.22-.2401-.0699-.47-.15-.7-.24-.19-.07-.38-.14-.57-.21-.11-.03-.21-.07-.32-.12-.39-.16-.78-.32-1.16-.4901-.26-.12-.52-.24-.77-.36-.26-.12-.51-.25-.77-.38-.23-.12-.45-.24-.68-.37-.26-.14-.51-.28-.76-.43-.28-.17-.56-.33-.84-.51-.08-.05-.16-.11-.2401-.16-.39-.25-.78-.52-1.15-.79-.32-.22-.63-.46-.93-.69-.03-.02-.05-.04-.08-.0699-.27-.21-.53-.42-.78-.64-.02-.01-.04-.03-.0601-.05-.2599-.22-.52-.45-.78-.68-.02-.01-.03-.02-.04-.04-.26-.25-.53-.49-.78-.75-.26-.26-.51-.52-.76-.78 3.99 2.34 8.6 3.77 13.52 3.95.38.02.76.03 1.14.03 6.76 0 12.99-2.31 17.92-6.2 5.99-4.71 10.08-11.73 10.92-19.72.11-1.01.16-2.04.16-3.08 0-2.07-.22-4.08-.63-6.02v-.01c-1.11-5.25-3.63-9.95-7.15-13.73 1.06.63 2.09 1.33 3.06 2.08.56.44 1.11.9 1.64 1.38 0 0 0-.01.01 0 .53.49 1.04.98 1.53 1.5.98 1.03 1.9 2.14 2.72 3.31.5.7.97 1.42 1.4 2.17.15.25.29.5.4301.76.17.31.33.61.47.92.11.21.21.42.31.64.16.32.3.64.43.96.16.36.3.72.43 1.09.11.28.21.56.3.85.08.23.16.47.2401.72.1.32.19.64.28.96.06.23.12.45.17.68.1801.71.33 1.42.44 2.15.04.21.07.42.1.64.05.32.09.65.12.97.02.14.04.28.05.41.03.35.06.7.07 1.06.02.15.03.29.03.44.0201.42.0301.84.0301 1.27z" fill="#d0cfce"/><path d="m65 36c0 1.61-.13 3.19-.39 4.73-.71 4.39-2.42 8.45-4.89 11.94v.01c-4.24 6.03-10.73 10.37-18.24 11.8-1.78.34-3.61.52-5.48.52-.5 0-1-.01-1.49-.04h-.07c-.47-.03-.94-.06-1.41-.11-.04 0-.08-.01-.1201-.01-.39-.04-.78-.09-1.17-.15-.11-.02-.23-.03-.34-.05-.3-.05-.59-.1-.89-.16-.47-.09-.94-.19-1.41-.31-.19-.04-.39-.09-.58-.14-.26-.07-.52-.15-.78-.23-.23-.07-.47-.14-.71-.22-.2401-.0699-.47-.15-.7-.24-.19-.07-.38-.14-.57-.21-.11-.03-.21-.07-.32-.12-.39-.16-.78-.32-1.16-.4901-.52-.23-1.03-.48-1.54-.74-.23-.12-.45-.24-.68-.37-.26-.14-.51-.28-.76-.43-.28-.17-.56-.33-.84-.51-.08-.05-.16-.11-.2401-.16-.39-.25-.78-.52-1.15-.79-.32-.22-.63-.46-.93-.69-.03-.02-.05-.04-.08-.0699-.27-.21-.53-.42-.78-.64-.13-.1-.26-.21-.38-.32-.1-.09-.19-.17-.29-.26-.02-.01-.03-.02-.04-.03-.03-.03-.06-.06-.09-.08-.02-.01-.03-.03-.04-.04-.02-.01-.03-.02-.04-.04-.13-.11-.25-.22-.37-.34-.13-.12-.25-.23-.36-.35-.02-.02-.04-.04-.05-.06-.1-.1-.2-.19-.3-.28-.1517-.1517-.2917-.3225-.4401-.4795-.0066-.0068-.0134-.0137-.02-.0205.0008.0004.0015.0009.0023.0013-.3342-.3544-.6707-.7049-.9923-1.0813-.24-.28-.48-.57-.71-.87-.3199-.41-.6299-.82-.93-1.25-2.46-3.51-4.16-7.59-4.87-12.01-.2397-1.5-.3597-3.04-.3597-4.61 0-6.17 1.92-11.89 5.22-16.59 3.19-4.58 7.68-8.19 12.93-10.3 3.35-1.37 7.01-2.11 10.85-2.11 3.83 0 7.49.74 10.83 2.1 2.52 1 4.86 2.36 6.97 4.02.56.43 1.11.89 1.64 1.38h.01c.53.48 1.04.98 1.53 1.5.75.77 1.44 1.58 2.09 2.44.21.28.43.57.63.86v.01s0-.01.01 0c.5.69.97 1.42 1.39 2.17.15.25.29.5.4301.76.17.31.33.61.47.92.11.21.21.42.31.64.16.32.3.64.43.96.16.36.3.72.43 1.09.11.28.21.56.3.85.08.23.16.47.2401.72.1.32.19.64.28.96.06.23.12.45.17.68.1801.71.33 1.42.44 2.15.04.21.07.42.1.64.05.32.09.65.12.97.02.14.04.28.05.41.03.35.06.7.07 1.06.02.15.03.29.03.44.0198.42.0298.84.0298 1.27z" style="fill:none;stroke:#000;stroke-linecap:round;stroke-linejoin:round;stroke-miterlimit:10;stroke-width:2"/><path d="m34.2366 28.0728-6.1555 4.4722c-1.0515.7639-1.4914 2.118-1.0898 3.3541l2.3512 7.2362c.4016 1.2361 1.5535 2.0729 2.8532 2.0729h7.6086c1.2997 0 2.4515-.8369 2.8532-2.0729l2.3512-7.2362c.4016-1.2361-.0383-2.5902-1.0898-3.3541l-6.1555-4.4722c-1.0515-.7639-2.4753-.7639-3.5268 0z"/><path d="m46.28 10.18-8.41 4.12c-.59.28-1.23.42-1.87.41-.57-.0099-1.14-.14-1.68-.39l-8.61-4.1c-.42-.2-.64-.67-.56-1.11 3.35-1.37 7.01-2.11 10.85-2.11 3.83 0 7.49.74 10.83 2.1.08.43-.13.88-.55 1.08z"/><path d="m30.51 64.48c-.47-.09-.94-.19-1.41-.31-.19-.04-.39-.09-.58-.14-.26-.07-.52-.15-.78-.23-.23-.07-.47-.14-.71-.22-.2401-.0699-.47-.15-.7-.24-.19-.07-.38-.14-.57-.21-.11-.03-.21-.07-.32-.12-.39-.16-.78-.32-1.16-.4901-.522-.2304-1.0333-.4806-1.5386-.741-.2299-.1179-.4554-.2423-.6817-.3661-.2557-.1407-.509-.2849-.7601-.4332-.2823-.1659-.5635-.3326-.8397-.5077-.0818-.0522-.1609-.108-.2422-.161-3.1296-2.0298-5.849-4.6387-7.9878-7.691.19-.34.58-.55 1.01-.5l9.34 1.14c.64.08 1.24.3 1.76.65.49.33.91.76 1.22 1.27l2.82 4.59 2.19 3.58c.2201.3601.1901.8101-.0599 1.1301z"/><path d="m15.16 31.37c-.14.58-.41 1.13-.79 1.61l-5.9 7.3c-.28.34-.73.46-1.11.33-.24-1.5-.36-3.04-.36-4.61 0-6.17 1.92-11.89 5.22-16.59.42.05.79.35.88.79l2.08 9.33c.14.61.13 1.24-.02 1.84z"/><path d="m59.72 52.67v.01c-4.24 6.03-10.73 10.37-18.24 11.8-.26-.32-.29-.78-.07-1.15l4.99-8.14c.3199-.52.74-.95 1.24-1.28.52-.34 1.11-.56 1.74-.64l9.31-1.14c.44-.05.84.18 1.03.54z"/><path d="m65 36c0 1.61-.13 3.19-.39 4.73-.36.08-.75-.04-1-.35l-5.25-6.5-.73-.9c-.78-.96-1.08-2.23-.8-3.45l1.06-4.75v-.01l1.04-4.69c.08-.39.39-.6899.77-.77 0-.01 0-.01.01 0 .5.69.97 1.42 1.39 2.17.15.25.29.5.4301.76.17.31.33.61.47.92.11.21.21.42.31.64.16.32.3.64.43.96.16.36.3.72.43 1.09.11.28.21.56.3.85.08.23.16.47.2401.72.1.32.19.64.28.96.06.23.12.45.17.68.1801.71.33 1.42.44 2.15.04.21.07.42.1.64.05.32.09.65.12.97.02.14.04.28.05.41.03.35.06.7.07 1.06.02.15.03.29.03.44.0198.42.0298.84.0298 1.27z"/><g style="fill:none;stroke:#000;stroke-linecap:round;stroke-linejoin:round;stroke-miterlimit:10;stroke-width:2"><path d="m36 14.7122v12.7877"/><path d="m44.9889 33.9902 11.8236-2.6636"/><path d="m41.5906 44.6172 6.047 9.2954"/><path d="m30.394 44.6059-6.0506 9.3067"/><path d="m27.0013 34.0188-11.8377-2.646"/></g></svg>