<svg viewBox="0 0 72 72" xmlns="http://www.w3.org/2000/svg"><g fill="none" stroke="#000" stroke-miterlimit="10" stroke-width="2"><circle cx="39.9688" cy="14.0938" r="3"/><g stroke-linecap="round"><path d="m41 25 6.6709 7.5049c.7314.8222.8984 2.2851.3711 3.251l-4.084 7.4882c-.5273.9659-1.0332 2.6524-1.124 3.7491l-.918 11.0136c-.0908 1.0967.6045 1.9932 1.5459 1.9932s1.918-.876 2.1699-1.9463l1.9102-8.1074c.2519-1.0703.9814-2.6787 1.6201-3.5742l2.6758-3.7442c.6387-.8955 1.8535-2.2041 2.6982-2.9082l2.9278-2.4394c.8447-.7041 1.5361-2.1807 1.5361-3.2803 0-1.0996-.6025-2.6689-1.3379-3.4863l-7.6621-8.5137" stroke-linejoin="round"/><path d="m59 35 .8193 9.0078c.0996 1.0957.4756 2.8428.837 3.8818l2.8544 8.2208c.3614 1.039-.0185 1.8896-.8437 1.8896s-1.9404-.7852-2.4785-1.7441l-4.21-7.5118c-.5381-.9589-1.1269-2.6318-1.3076-3.7168l-.6709-4.0273" stroke-linejoin="round"/><path d="m50 22c-2-2-4.2988-2.5669-6-2-3 1-8 2-10 2s-5-1-8-3" stroke-linejoin="round"/><path d="m26.334 28.1523-3.8692 4.3526c-.7314.8222-1.0449 2.3486-.6962 3.3926l2.7343 8.205c.3487 1.044.585 2.7959.5254 3.8946l-.5351 10.0058c-.0596 1.0987-.878 1.9971-1.8194 1.9971s-1.7685-.8984-1.8388-1.9961l-.5723-9.0078c-.0703-1.0977-.5293-2.8008-1.0215-3.7852l-1.2109-2.4218c-.4922-.9844-1.586-2.3653-2.4307-3.0694l-2.9277-2.4394c-.8448-.7041-1.5362-2.1807-1.5362-3.2803 0-1.0996.6026-2.6689 1.3379-3.4863l7.6621-8.5137" stroke-linejoin="round"/><path d="m12 37v8c0 1.0996-.1631 2.8848-.3633 3.9668l-1.3047 7.0664c-.2002 1.082.3116 1.9668 1.1368 1.9668.8251 0 1.7607-.8613 2.08-1.9141l1.8711-6.1718c.3194-1.0528.7285-2.8018.9092-3.8868l.6709-4.0273" stroke-linejoin="round"/><path d="m23.0674 19.8145c-.8418.3173-1.7901.9892-2.9317 2.1855" stroke-linejoin="round"/><path d="m25.1357 23s4.8643 4 6.8643 4c1 0 3 0 4-5"/><path d="m32.0703 18.1875c.5674-.5459.9199-1.313.9199-2.1616 0-1.6563-1.3437-3-3-3-1.6543 0-3 1.3437-3 3"/></g></g></svg>